# xmcd
#
# Track frame offsets: 
#        150
#        11061
#        25760
#        37047
#        50319
#        56505
#        69515
#        100875
#        126220
#        150383
#        170852
#        181822
#        191632
#        201126
#        226484
#        248850
#
# Disc length: 3712 seconds
#
# Revision: 0
# Processed by: cddbd v1.5.2PL0 Copyright (c) Steve Scherf et al.
# Submitted via: ExactAudioCopyFreeDBPlugin 1.0
#
DISCID=d70e7e10
DTITLE=CDS制作 - TEST-CD-25A 【世界名曲精华】
DYEAR=2014
DGENRE=STE
TTITLE0=土耳其进行曲
TTITLE1=阿莱城姑娘 法兰都舞曲
TTITLE2=匈牙利舞曲第五首
TTITLE3=拉达锡奇进行曲
TTITLE4=喜庆 选自烟花音乐
TTITLE5=天鹅湖 场景
TTITLE6=天鹅湖 圆舞曲
TTITLE7=弦乐小夜曲 第一乐章
TTITLE8=军队进行曲
TTITLE9=培尔金特 清晨情调
TTITLE10=维也纳音乐盒
TTITLE11=卡门 第一幕序曲
TTITLE12=卡门 第四幕序曲
TTITLE13=在波斯市场
TTITLE14=结婚进行曲
TTITLE15=荣耀兴威仪进行曲第一首
EXTD=
EXTT0=
EXTT1=
EXTT2=
EXTT3=
EXTT4=
EXTT5=
EXTT6=
EXTT7=
EXTT8=
EXTT9=
EXTT10=
EXTT11=
EXTT12=
EXTT13=
EXTT14=
EXTT15=
PLAYORDER=
